<svg xmlns="http://www.w3.org/2000/svg" version="1.1" xmlns:xlink="http://www.w3.org/1999/xlink" width="1500" height="1500" viewBox="0 0 1500 1500"><rect width="1500" height="1500" x="0" y="0" id="background" stroke="transparent" fill="#ffffff"></rect><svg xml:space="preserve" width="1000" height="1000" data-version="2" data-id="lg_3NuTdDCn1LBjXxq0SN" viewBox="0 0 562 532" x="250" y="250"><rect width="100%" height="100%" fill="transparent"></rect><path fill="#363636" d="M78.85 525.48h-17.8l11.09-44.38h12.13q5.77 0 10.38 2.47 4.61 2.46 7.32 6.85t2.71 10.16q0 5.08-2.09 9.56-2.1 4.49-5.75 7.94t-8.28 5.42q-4.64 1.98-9.71 1.98m-2.32-39.35-8.63 34.32h10.9q4.04 0 7.66-1.56 3.63-1.55 6.41-4.26 2.79-2.71 4.39-6.21 1.6-3.5 1.6-7.45 0-4.39-2.02-7.74-2.02-3.35-5.57-5.23-3.55-1.87-8.14-1.87zm53.74 39.35h-21.89l11.09-44.38h21.89l-1.23 5.03h-16.27l-2.37 9.47h12.82l-1.23 5.03h-12.82l-5.03 19.82h16.27zm20.66.29q-3.9 0-7.32-1.9-3.43-1.89-5.15-5.05l3.25-6.51q.54 2.42 1.97 4.34t3.45 3.03q2.03 1.11 4.29 1.11 2.37 0 4.39-1.16 2.02-1.16 3.26-3.05 1.23-1.9 1.23-4.07 0-1.97-1.09-3.6-1.08-1.63-3.1-3.16l-4.34-3.4q-2.61-2.02-4.04-4.12-1.43-2.09-1.43-4.9 0-3.35 1.79-6.21 1.8-2.86 4.81-4.59 3.01-1.72 6.61-1.72 3.25 0 6.26 1.38t4.98 3.79l-3.25 6.46q-1.04-3.01-3.45-4.88-2.42-1.87-5.18-1.87-2.71 0-4.76 1.97t-2.05 4.78q0 1.53.87 2.89.86 1.35 2.49 2.63l4.43 3.41q3.06 2.31 4.61 4.73 1.56 2.41 1.56 5.47 0 3.75-2.05 7-2.04 3.26-5.47 5.23-3.43 1.97-7.57 1.97m38.9-39.64H178l1.23-5.03h29.29l-1.23 5.03h-11.84l-9.86 39.35h-5.62zm22.39 39.35h-5.62l11.09-44.38h5.62zm60.49-44.38-11.43 45.86-22.54-34.22-8.18 32.74h-5.33l11.44-45.86 22.54 34.22 8.18-32.74zm27.62 44.67q-3.9 0-7.33-1.9-3.42-1.89-5.15-5.05l3.26-6.51q.54 2.42 1.97 4.34t3.45 3.03q2.02 1.11 4.29 1.11 2.37 0 4.39-1.16 2.02-1.16 3.25-3.05 1.23-1.9 1.23-4.07 0-1.97-1.08-3.6-1.09-1.63-3.11-3.16l-4.34-3.4q-2.61-2.02-4.04-4.12-1.43-2.09-1.43-4.9 0-3.35 1.8-6.21t4.81-4.59q3.01-1.72 6.61-1.72 3.25 0 6.26 1.38 3 1.38 4.98 3.79l-3.26 6.46q-1.03-3.01-3.45-4.88-2.41-1.87-5.18-1.87-2.71 0-4.75 1.97-2.05 1.97-2.05 4.78 0 1.53.86 2.89.87 1.35 2.49 2.63l4.44 3.41q3.06 2.31 4.61 4.73 1.55 2.41 1.55 5.47 0 3.75-2.04 7-2.05 3.26-5.48 5.23-3.42 1.97-7.56 1.97m38.9-39.64h-11.84l1.24-5.03h29.28l-1.23 5.03h-11.83l-9.86 39.35h-5.62zm21.94 39.35h-5.62l11.09-44.38h10.65q3.16 0 5.65 1.33t3.94 3.7q1.46 2.37 1.46 5.47 0 3.01-1.38 5.67-1.38 2.67-3.7 4.56-2.32 1.9-5.18 2.74l9.27 20.91h-6.06l-8.98-20.42h-6.01zm9.86-39.35-3.55 14.2h6.66q2.51 0 4.53-1.11 2.02-1.11 3.18-2.93 1.16-1.83 1.16-4 0-2.76-1.9-4.46-1.9-1.7-5.2-1.7zm45.56 40.23q-5.77 0-10.41-2.68-4.63-2.69-7.32-7.33-2.68-4.63-2.68-10.35 0-5.08 2.09-9.71 2.1-4.64 5.75-8.26 3.64-3.63 8.28-5.72 4.63-2.1 9.71-2.1 5.77 0 10.38 2.69 4.61 2.69 7.32 7.3 2.71 4.61 2.71 10.38 0 5.08-2.09 9.71-2.1 4.63-5.75 8.26-3.64 3.62-8.28 5.72-4.63 2.09-9.71 2.09m.54-5.32q3.85 0 7.35-1.63 3.5-1.63 6.23-4.46 2.74-2.84 4.32-6.44 1.58-3.59 1.58-7.54 0-4.39-2-7.89t-5.42-5.52q-3.43-2.02-7.72-2.02-3.85 0-7.35 1.63-3.5 1.62-6.23 4.46-2.74 2.83-4.32 6.43-1.58 3.6-1.58 7.55 0 4.38 2 7.88 2 3.51 5.42 5.53 3.43 2.02 7.72 2.02m76.47-39.94-11.44 45.86-22.53-34.22-8.18 32.74h-5.33l11.44-45.86 22.53 34.22 8.19-32.74zm24.06 45.26q-5.76 0-10.4-2.68-4.63-2.69-7.32-7.33-2.69-4.63-2.69-10.35 0-5.08 2.1-9.71 2.09-4.64 5.74-8.26 3.65-3.63 8.29-5.72 4.63-2.1 9.71-2.1 4.58 0 8.48 1.73 3.89 1.72 6.66 4.78l-2.86 5.87q-1.98-3.21-5.33-5.13t-7.49-1.92q-3.85 0-7.35 1.63-3.5 1.62-6.24 4.46-2.73 2.83-4.31 6.43-1.58 3.6-1.58 7.55 0 4.38 2 7.88 1.99 3.51 5.42 5.53 3.43 2.02 7.72 2.02 2.31 0 4.53-.64t4.24-1.78l2.91-11.78h-12.23l1.24-5.03h17.65l-4.88 20.07q-3.11 2.07-6.68 3.28-3.58 1.2-7.33 1.2M5.4 291.24q0-5.93 3.61-9.75 3.6-3.81 8.48-3.81 4.87 0 7.42 2.54 0 23.32 15.05 40.28t40.07 25.44V72.88q-41.56 10.6-41.56 34.77 0 8.06 2.55 15.69-2.55 5.09-11.45 5.09-8.9 0-15.26-6.36-6.36-6.36-6.36-16.96 0-19.08 19.29-33.5 19.29-14.41 52.79-21.2v-19.5q0-12.72 6.36-19.29 6.36-6.58 15.68-6.58 9.33 0 16.12 5.94v35.19q4.24-.42 12.72-.42 70.38 0 114.9 39.85 22.05 20.36 34.56 54.06 12.5 33.71 12.5 78.23 0 77.17-45.58 116.81-45.58 39.65-121.05 39.65-57.24 0-89.04-25.02-31.8-25.01-31.8-58.09M133.03 66.52l-13.15.43v286.2h6.36q58.09 0 92.86-32.23 34.77-32.22 34.77-104.09t-32.65-111.09q-32.65-39.22-88.19-39.22m384.56 224.72q0-20.35-9.54-34.76-9.54-14.42-24.59-22.48-15.05-8.05-33.28-14.41-18.23-6.36-36.47-12.93-18.23-6.58-33.28-15.69-15.05-9.12-24.59-25.23t-9.54-39.01q0-39.43 29.04-61.9 29.05-22.47 74.63-22.47t72.71 20.77q27.14 20.78 27.14 45.37 0 16.96-6.57 25.23-6.58 8.27-15.48 8.27-16.54 0-21.2-6.36l-1.27-2.12q4.24-5.52 4.24-21.2 0-24.17-20.35-37.95-20.36-13.78-47.28-13.78T399.3 75q-15.69 14.42-15.69 35.2 0 20.77 9.54 34.55 9.54 13.78 24.8 21.41 15.27 7.64 33.71 13.57 18.45 5.94 36.89 12.93 18.44 7 33.71 16.96 15.26 9.97 24.8 28.2 9.54 18.23 9.54 44.1 0 45.36-32.22 69.53-32.23 24.17-80.77 24.17-48.55 0-84.38-24.8-35.83-24.81-35.83-62.12 0-17.38 6.79-27.35 6.78-9.96 16.11-9.96 16.53 0 21.2 5.51l1.27 2.12q-3.82 10.6-3.82 25.86 0 28.84 23.54 50.46 23.53 21.62 61.69 21.62 27.56 0 47.49-19.29 19.92-19.29 19.92-46.43"></path></svg></svg>